<svg height='18' viewBox='0 0 80 18' width='80' xmlns='http://www.w3.org/2000/svg'>
	<g fill='none'>
	<path fill="#ffe418" d="m41.28256,-0.05936l5.436,0l0,6.796c0.773,-1.105 1.832,-1.622 3.268,-1.622c3.16,0 4.95,2.304 4.95,6.397c0,3.905 -1.811,6.233 -4.816,6.233c-1.834,0 -3.072,-0.705 -3.778,-2.21l0,2.045l-5.06,0l0,-4.40975l0,-13.22925zm5.28,11.452c0,1.79 0.376,2.659 1.348,2.659c0.95,0 1.37,-0.869 1.37,-2.659c0,-1.78 -0.398,-2.656 -1.37,-2.656c-0.972,0 -1.348,0.876 -1.348,2.656zm9.02684,0.11011c0.2721,-5.36452 2.86316,-6.63411 6.95216,-6.63411c4.533,0 6.36503,2.33305 6.36503,7.00705c-0.17872,3.8154 -1.24179,5.58997 -6.38649,5.86795c-5.03132,-0.35694 -6.66128,-1.12204 -6.65859,-6.37695zm23.71105,-6.17405l0,3.54l-2.535,0l0,2.89c0,1.482 0.223,2.176 1.311,2.176c0.294,0 0.69,-0.05 1.156,-0.164l0,3.469c-1.176,0.37 -2.352,0.505 -3.597,0.505c-1.531,0 -2.707,-0.512 -3.398,-1.388c-0.889,-1.161 -0.91,-2.614 -0.91,-4.558l0,-2.934l-1.942,0l0,-3.54l1.935,0l0,-2.68l5.446,-1.782l0,4.466l2.534,0z"/>
	<path d='M0 0h5.436v6.796c.773-1.105 1.832-1.622 3.268-1.622 3.16 0 4.95 2.304 4.95 6.397 0 3.905-1.811 6.233-4.816 6.233-1.834 0-3.072-.705-3.778-2.21v2.045H0zm5.28 11.452c0 1.79.376 2.659 1.348 2.659.95 0 1.37-.869 1.37-2.659 0-1.78-.398-2.656-1.37-2.656-.972 0-1.348.876-1.348 2.656zm22.27 1.132h-7.532c.132 1.32 1.105 1.944 2.938 1.944 1.281 0 2.607-.254 3.887-.763v3.076c-1.258.532-2.981.834-4.991.834-4.64 0-7.137-2.313-7.137-6.385 0-3.98 2.455-6.362 6.544-6.362 4.533 0 6.297 2.197 6.297 6.871v.786zm-4.727-2.336v-.37c0-1.365-.486-2.15-1.414-2.15-.95 0-1.436.785-1.436 2.173v.346h2.85zM38.29 5.252v3.54h-2.535v2.89c0 1.482.223 2.176 1.311 2.176.294 0 .69-.05 1.156-.164v3.469c-1.176.37-2.352.505-3.597.505-1.531 0-2.707-.512-3.398-1.388-.889-1.161-.91-2.614-.91-4.558V8.788h-1.942v-3.54h1.935v-2.68L35.756.786v4.466z' fill='#fff'/>
	</g>
</svg>