<?xml version="1.0" encoding="UTF-8" standalone="no"?><svg xmlns="http://www.w3.org/2000/svg" viewBox="0 0 64 64"><defs><style>.cls-1{fill:#8dc79d;}.cls-2{fill:#ebebeb;}.cls-3{fill:#f7ba61;}.cls-4{fill:#dc4d41;}.cls-5{fill:#a8a8a8;}</style></defs><g id="flat"><path class="cls-1" fill="#8dc79d" d="M3 61l29-20 29 20"/><path class="cls-2" d="M61 59.785L32.568 40.177a1 1 0 0 0-1.136 0L3 59.785V61h1.762l15.31-10.559 2.814 1.408a20.486 20.486 0 0 0 18.228 0l2.814-1.408L59.238 61H61zM40.219 50.06a18.471 18.471 0 0 1-16.438 0l-1.83-.915L32 42.215l10.049 6.93z" fill="#ebebeb"/><path class="cls-3" fill="#f7ba61" d="M32 4h26v16H32z"/><path class="cls-4" fill="#dc4d41" d="M33 12h13v8H33z"/><path class="cls-4" fill="#dc4d41" d="M46 4h12v8H46z"/><path class="cls-5" d="M32 4h2v37a2 2 0 0 1-2 2 2 2 0 0 1-2-2V6a2 2 0 0 1 2-2z" fill="#a8a8a8"/></g><metadata><rdf:RDF xmlns:rdf="http://www.w3.org/1999/02/22-rdf-syntax-ns#" xmlns:rdfs="http://www.w3.org/2000/01/rdf-schema#" xmlns:dc="http://purl.org/dc/elements/1.1/"><rdf:Description about="https://iconscout.com/legal#licenses" dc:title="corner-flags-angle-kick-soccer-football" dc:description="corner-flags-angle-kick-soccer-football" dc:publisher="Iconscout" dc:date="2018-06-22" dc:format="image/svg+xml" dc:language="en"><dc:creator><rdf:Bag><rdf:li>Supalerk Laipawat</rdf:li></rdf:Bag></dc:creator></rdf:Description></rdf:RDF></metadata></svg>